<?xml version="1.0" encoding="iso-8859-1"?>
<!-- Uploaded to: SVG Repo, www.svgrepo.com, Generator: SVG Repo Mixer Tools -->
<svg height="800px" width="800px" version="1.1" id="Layer_1" xmlns="http://www.w3.org/2000/svg" xmlns:xlink="http://www.w3.org/1999/xlink" 
	 viewBox="0 0 512.002 512.002" xml:space="preserve">
<circle style="fill:#F15A24;" cx="277.023" cy="186.382" r="173.376"/>
<path d="M466.908,361.849l-53.072-53.072c30.223-33.701,46.759-76.775,46.759-122.395c0-49.036-19.096-95.135-53.769-129.808
	C372.155,21.902,326.053,2.806,277.019,2.806c-49.036,0-95.136,19.095-129.809,53.768s-53.768,80.774-53.768,129.808
	c0,49.036,19.095,95.136,53.768,129.809s80.774,53.768,129.809,53.768c45.619,0,88.693-16.536,122.393-46.759l21.357,21.357
	c-83.729,76.997-214.496,74.921-295.672-6.255c-81.176-81.176-83.252-211.941-6.255-295.672l5.633,5.633
	c1.992,1.992,4.602,2.987,7.212,2.987c2.61,0,5.22-0.996,7.212-2.987c3.983-3.983,3.983-10.441,0-14.424L108.047,2.987
	c-3.983-3.983-10.439-3.983-14.425,0c-3.983,3.983-3.983,10.441,0,14.424l10.783,10.784
	c-40.234,43.394-62.299,99.497-62.299,158.999c0,62.53,24.351,121.317,68.566,165.533c44.217,44.216,103.003,68.565,165.533,68.565
	c59.502,0,115.605-22.064,158.999-62.298l17.277,17.277c1.992,1.991,4.602,2.987,7.212,2.987c2.61,0,5.22-0.996,7.212-2.987
	C470.891,372.29,470.891,365.832,466.908,361.849z M389.995,165.728c-9.823-14.881-21.431-29.492-34.521-43.374l43.167-43.168
	c8.551,14.848,8.872,36.67,0.687,62.816C396.882,149.816,393.748,157.753,389.995,165.728z M384.213,64.765l-43.164,43.163
	c-13.882-13.091-28.495-24.698-43.375-34.521c7.975-3.753,15.911-6.888,23.725-9.334c12.687-3.972,24.355-5.942,34.704-5.942
	C367.085,58.131,376.569,60.363,384.213,64.765z M333.948,129.455L333.948,129.455c17.968,17.967,33.221,37.349,44.983,56.928
	c-10.18,16.945-22.979,33.74-37.886,49.601l-49.601-49.6l11.462-11.462c3.983-3.983,3.983-10.441,0-14.425
	c-3.984-3.982-10.44-3.982-14.425,0l-11.462,11.462l-49.6-49.6c15.82-14.868,32.569-27.642,49.469-37.808
	C296.237,96.146,315.783,111.29,333.948,129.455z M399.329,230.766c8.185,26.146,7.864,47.968-0.687,62.816l-43.167-43.167
	c13.091-13.882,24.698-28.494,34.521-43.375C393.748,215.014,396.882,222.95,399.329,230.766z M212.988,107.929l-43.163-43.163
	c7.758-4.463,17.291-6.615,28.078-6.615c17.06,0,37.227,5.369,58.331,15.341C241.398,83.296,226.83,94.876,212.988,107.929z
	 M155.391,79.18l43.173,43.173c-13.055,13.845-24.637,28.415-34.443,43.255C147.841,131.156,143.865,99.214,155.391,79.18z
	 M212.998,136.788l49.596,49.596l-49.596,49.596c-15.001-15.998-27.692-32.868-37.73-49.596
	C185.306,169.655,197.997,152.786,212.998,136.788z M198.564,250.414l-43.173,43.173c-11.526-20.032-7.55-51.976,8.73-86.428
	C173.927,221.998,185.508,236.568,198.564,250.414z M169.816,308.011l43.172-43.172c13.845,13.055,28.416,24.637,43.255,34.443
	C221.792,315.561,189.849,319.537,169.816,308.011z M227.419,250.408l49.6-49.6l49.596,49.596
	c-16.041,15.041-32.959,27.76-49.73,37.811C259.985,278.047,243.238,265.275,227.419,250.408z M341.049,264.838l43.168,43.168
	c-14.848,8.551-36.67,8.872-62.817,0.686c-7.815-2.447-15.752-5.581-23.725-9.333C312.556,289.537,327.167,277.929,341.049,264.838z
	 M425.132,255.049c-0.9-9.558-3-19.721-6.336-30.377c-3.947-12.609-9.478-25.468-16.405-38.289
	c6.927-12.82,12.458-25.679,16.405-38.289c3.336-10.656,5.436-20.82,6.336-30.377c9.862,21.239,15.066,44.551,15.066,68.665
	C440.198,210.498,434.993,233.81,425.132,255.049z M345.686,38.271c-9.558,0.9-19.721,3-30.378,6.336
	c-12.609,3.947-25.468,9.478-38.288,16.405c-12.82-6.927-25.679-12.457-38.289-16.405c-10.656-3.336-20.819-5.436-30.376-6.337
	c21.239-9.862,44.551-15.066,68.665-15.066S324.446,28.41,345.686,38.271z M128.906,117.717c0.9,9.559,3,19.722,6.336,30.378
	c3.947,12.609,9.478,25.468,16.405,38.288c-6.927,12.82-12.458,25.679-16.405,38.288c-3.336,10.657-5.436,20.821-6.336,30.378
	c-9.862-21.24-15.066-44.552-15.066-68.667C113.84,162.268,119.044,138.956,128.906,117.717z M208.342,334.491
	c9.562-0.899,19.728-2.994,30.388-6.332c12.609-3.947,25.468-9.478,38.289-16.405c12.819,6.927,25.679,12.457,38.288,16.405
	c10.661,3.337,20.826,5.433,30.388,6.332c-21.242,9.865-44.557,15.071-68.675,15.071
	C252.901,349.562,229.585,344.355,208.342,334.491z"/>
<path d="M317.614,155.987c2.61,0,5.219-0.995,7.211-2.986l1.625-1.624c3.983-3.983,3.984-10.44,0.002-14.424
	c-3.982-3.984-10.438-3.984-14.425-0.002l-1.625,1.624c-3.983,3.983-3.984,10.44-0.002,14.424
	C312.393,154.992,315.003,155.987,317.614,155.987z"/>
<path d="M365.544,491.603h-75.915v-40.322c0-5.633-4.567-10.199-10.199-10.199c-5.632,0-10.199,4.566-10.199,10.199v40.322h-75.917
	c-5.632,0-10.199,4.566-10.199,10.199s4.567,10.199,10.199,10.199h172.23c5.632,0,10.199-4.566,10.199-10.199
	S371.177,491.603,365.544,491.603z"/>
</svg>